# xmcd
#
# Track frame offsets:
#	150
#	17194
#	42365
#	64846
#	87457
#	107158
#	133053
#	159084
#	180935
#	199445
#	220583
#	240071
#
# Disc length: 3455 seconds
#
# Revision: 0
# Processed by: cddbd v1.5.1PL0 Copyright (c) Steve Scherf et al.
# Submitted via: dBpowerAMP V4.0
#
DISCID=9a0d7d0c
DTITLE=David Vest - Way Down Here
DYEAR=2003
DGENRE=Blues
TTITLE0=Get On Down With Me
TTITLE1=Meet Me With Your Black Dress On
TTITLE2=Too Old And Crazy
TTITLE3=What's That About?
TTITLE4=Way Down Here
TTITLE5=Heavy Weather
TTITLE6=Kaliyuga Highway
TTITLE7=Little Effie
TTITLE8=Devil Got A Hold
TTITLE9=You Got Me So Bad, Baby
TTITLE10=Watching You The Whole Time
TTITLE11=Worried About The World
EXTD=
EXTT0=
EXTT1=
EXTT2=
EXTT3=
EXTT4=
EXTT5=
EXTT6=
EXTT7=
EXTT8=
EXTT9=
EXTT10=
EXTT11=
PLAYORDER=
